<?xml version="1.0" standalone="no"?>
<!DOCTYPE svg PUBLIC "-//W3C//DTD SVG 20010904//EN"
 "http://www.w3.org/TR/2001/REC-SVG-20010904/DTD/svg10.dtd">
<svg version="1.0" xmlns="http://www.w3.org/2000/svg"
 width="158.000000pt" height="88.000000pt" viewBox="0 0 158.000000 88.000000"
 preserveAspectRatio="xMidYMid meet">

<g transform="translate(0.000000,88.000000) scale(0.100000,-0.100000)"
fill="#000000" stroke="none">
<path d="M31 405 c1 -19 18 -51 18 -35 0 8 -4 22 -9 30 -5 8 -9 11 -9 5z"/>
<path d="M80 378 c0 -20 26 -53 33 -42 3 5 -3 20 -14 33 -12 15 -19 18 -19 9z"/>
<path d="M80 320 c6 -11 13 -20 16 -20 2 0 0 9 -6 20 -6 11 -13 20 -16 20 -2
0 0 -9 6 -20z"/>
<path d="M660 290 c-5 -51 2 -175 10 -184 5 -5 17 -5 27 -1 16 8 16 9 -4 12
-21 4 -23 10 -23 73 0 63 2 69 23 73 22 4 22 4 0 6 -14 1 -23 9 -26 24 -4 21
-4 21 -7 -3z"/>
<path d="M1264 205 c0 -60 1 -84 3 -52 2 32 2 81 0 110 -2 29 -3 3 -3 -58z"/>
<path d="M224 246 c-72 -61 0 -171 89 -137 37 14 35 32 -2 21 -43 -12 -75 8
-79 49 -6 57 39 87 89 60 19 -10 19 -9 9 10 -15 30 -71 28 -106 -3z"/>
<path d="M383 263 c-7 -2 -13 -11 -13 -19 0 -12 4 -12 20 -4 33 18 74 9 78
-17 3 -20 0 -21 -31 -16 -48 7 -77 -11 -77 -47 0 -42 41 -68 81 -53 17 7 31 8
35 2 3 -5 10 -7 15 -4 13 9 11 139 -3 153 -12 12 -81 15 -105 5z m71 -79 c27
-10 20 -53 -9 -60 -29 -7 -55 10 -55 36 0 29 26 39 64 24z"/>
<path d="M547 263 c-4 -3 -7 -39 -7 -80 0 -58 3 -73 15 -73 11 0 15 13 15 54
0 58 18 90 45 80 9 -4 15 0 15 10 0 19 -31 21 -48 4 -9 -9 -12 -9 -12 0 0 13
-13 16 -23 5z"/>
<path d="M740 190 c0 -47 4 -80 10 -80 6 0 10 28 10 65 0 54 3 66 20 75 11 6
25 8 30 5 6 -3 10 -1 10 4 0 14 -37 14 -45 1 -3 -5 -11 -10 -16 -10 -6 0 -7 5
-4 10 3 6 1 10 -4 10 -7 0 -11 -30 -11 -80z"/>
<path d="M858 263 c-10 -2 -18 -9 -18 -15 0 -6 7 -7 18 -3 52 22 82 12 82 -27
0 -16 -5 -18 -34 -13 -50 10 -76 -8 -76 -51 0 -28 5 -36 26 -44 14 -6 42 -7
62 -4 l37 6 -3 71 c-2 40 -9 75 -15 79 -13 8 -51 9 -79 1z m56 -73 c36 -13 36
-57 0 -71 -20 -7 -32 -6 -50 6 -28 18 -30 32 -7 57 19 21 23 21 57 8z"/>
<path d="M983 258 c2 -7 19 -46 38 -86 l32 -74 22 58 c12 32 26 59 31 61 5 2
18 -22 29 -52 10 -30 21 -55 25 -55 3 0 19 30 34 68 40 95 41 99 28 87 -7 -6
-22 -37 -36 -70 l-24 -59 -29 64 -29 64 -23 -62 c-13 -35 -27 -60 -31 -55 -4
4 -18 34 -31 65 -13 32 -28 58 -33 58 -4 0 -6 -6 -3 -12z"/>
<path d="M1343 255 c-12 -8 -24 -29 -28 -46 -15 -66 38 -119 104 -104 45 10
38 24 -9 18 -45 -6 -80 15 -80 49 0 16 8 18 65 18 72 0 80 9 44 54 -23 30 -63
34 -96 11z m79 -12 c33 -30 23 -43 -37 -43 -59 0 -67 8 -35 40 24 24 47 25 72
3z"/>
<path d="M1502 185 l1 -90 6 66 c6 68 24 104 47 95 7 -3 16 -1 19 4 4 6 -5 10
-19 10 -14 0 -28 -5 -32 -11 -4 -8 -9 -7 -15 2 -5 8 -8 -22 -7 -76z"/>
</g>
</svg>
